<?xml version="1.0" standalone="no"?>
<!DOCTYPE svg PUBLIC "-//W3C//DTD SVG 20010904//EN"
 "http://www.w3.org/TR/2001/REC-SVG-20010904/DTD/svg10.dtd">
<svg version="1.0" xmlns="http://www.w3.org/2000/svg"
 width="700.000000pt" height="700.000000pt" viewBox="0 0 700.000000 700.000000"
 preserveAspectRatio="xMidYMid meet">
<metadata>
Created by potrace 1.14, written by Peter Selinger 2001-2017
</metadata>
<g transform="translate(0.000000,700.000000) scale(0.100000,-0.100000)"
fill="#000000" stroke="none">
<path d="M3190 6083 c0 -6 5 -15 10 -18 6 -4 8 -10 6 -14 -7 -10 32 -7 41 4 5
4 2 5 -4 1 -7 -4 -13 -2 -13 4 0 6 -4 9 -9 5 -6 -3 -14 3 -20 12 -6 10 -11 13
-11 6z"/>
<path d="M3326 6082 c-3 -5 1 -9 9 -9 8 0 12 4 9 9 -3 4 -7 8 -9 8 -2 0 -6 -4
-9 -8z"/>
<path d="M3566 6082 c-3 -5 1 -9 9 -9 8 0 12 4 9 9 -3 4 -7 8 -9 8 -2 0 -6 -4
-9 -8z"/>
<path d="M3240 6076 c0 -2 7 -7 16 -10 8 -3 12 -2 9 4 -6 10 -25 14 -25 6z"/>
<path d="M3480 6076 c0 -2 7 -7 16 -10 8 -3 12 -2 9 4 -6 10 -25 14 -25 6z"/>
<path d="M3720 6076 c0 -2 7 -7 16 -10 8 -3 12 -2 9 4 -6 10 -25 14 -25 6z"/>
<path d="M3303 6052 c0 -9 2 -22 6 -27 3 -6 -2 -2 -11 8 -12 13 -23 17 -35 11
-19 -8 -29 -11 -51 -13 -7 0 -11 -5 -7 -10 3 -5 1 -12 -4 -15 -4 -3 -8 4 -7
16 0 12 -5 23 -12 25 -8 3 -10 -1 -5 -12 5 -15 3 -16 -16 -6 -12 7 -21 8 -20
4 4 -22 -3 -25 -17 -7 -8 10 -13 14 -10 8 3 -6 -6 -16 -19 -22 -15 -7 -25 -8
-25 -2 0 6 5 10 12 10 6 0 9 2 6 5 -10 10 -38 -7 -31 -19 3 -6 3 -8 -2 -4 -4
4 -15 2 -24 -5 -14 -10 -14 -10 -3 4 11 15 9 16 -20 14 -18 -2 -39 2 -47 9
-12 8 -13 8 -7 -1 4 -7 2 -13 -3 -13 -6 0 -11 -5 -11 -11 0 -8 5 -8 15 1 10 9
15 9 15 1 0 -6 -5 -11 -11 -11 -5 0 -8 -4 -4 -9 6 -11 -25 -7 -52 7 -10 5 -26
8 -35 7 -10 -2 -18 1 -18 6 0 5 -5 9 -12 9 -6 0 -8 -3 -5 -7 11 -10 -13 -32
-29 -26 -8 3 -14 0 -14 -7 0 -6 5 -8 10 -5 6 3 10 2 10 -3 0 -6 -8 -13 -17
-16 -10 -4 -14 -4 -10 0 8 9 -11 34 -27 34 -6 0 -4 -5 4 -10 13 -8 13 -11 1
-22 -8 -7 -11 -8 -8 -2 4 7 0 14 -8 18 -9 3 -15 0 -15 -9 0 -7 -5 -17 -12 -21
-6 -4 -8 -3 -5 2 3 6 -3 15 -13 22 -19 11 -37 1 -27 -15 3 -5 -1 -14 -9 -21
-10 -10 -14 -10 -14 -1 0 7 -3 9 -6 6 -4 -3 -16 -2 -27 4 -10 6 -17 7 -14 2 3
-5 -3 -15 -15 -22 -12 -8 -17 -8 -13 -1 5 7 -2 9 -22 6 -15 -2 -32 -5 -37 -5
-5 -1 -3 -8 4 -16 11 -14 10 -14 -12 -6 -18 7 -25 6 -25 -4 0 -7 7 -11 16 -9
9 2 4 -2 -12 -9 -15 -7 -24 -17 -20 -22 5 -5 1 -4 -8 3 -12 9 -19 9 -29 -1
-12 -10 -12 -9 -1 5 7 10 17 16 21 13 5 -3 12 0 15 6 12 18 -2 21 -27 5 -14
-9 -28 -13 -32 -9 -4 4 -4 0 0 -10 3 -10 1 -17 -5 -17 -6 0 -11 6 -12 13 0 6
-4 3 -9 -8 -5 -11 -9 -15 -9 -9 -1 7 -8 14 -15 17 -11 4 -13 1 -9 -10 5 -13 2
-15 -11 -10 -10 4 -15 3 -11 -3 3 -6 1 -10 -5 -10 -6 0 -8 -5 -4 -11 4 -8 1
-8 -12 -2 -27 13 -47 10 -51 -7 -4 -13 -3 -13 6 0 6 8 11 10 11 4 0 -16 -10
-23 -26 -17 -8 3 -11 10 -7 16 3 6 1 7 -6 3 -6 -4 -8 -12 -5 -18 4 -6 -2 -8
-17 -4 -13 3 -18 3 -11 0 6 -3 9 -11 6 -16 -4 -7 -2 -8 4 -4 7 4 12 2 12 -3 0
-6 -6 -11 -14 -11 -8 0 -17 -6 -19 -12 -4 -10 -6 -10 -6 0 -1 8 -6 10 -13 6
-17 -10 -48 -13 -43 -3 3 4 -2 9 -9 12 -10 4 -13 0 -11 -14 2 -11 0 -17 -4
-14 -11 6 -33 -20 -24 -29 4 -4 0 -4 -10 0 -13 5 -16 2 -11 -12 5 -15 4 -16
-4 -4 -6 8 -8 18 -6 22 3 4 0 8 -5 8 -6 0 -11 -6 -11 -14 0 -8 -9 -12 -25 -11
-13 2 -24 0 -24 -3 4 -26 -2 -32 -20 -23 -19 11 -31 5 -31 -13 0 -6 4 -5 9 3
7 11 12 9 22 -10 11 -21 11 -23 -4 -11 -13 11 -17 10 -27 -5 -10 -16 -11 -16
-6 0 3 9 1 17 -4 17 -6 0 -10 -6 -10 -12 0 -8 -7 -5 -15 6 -17 23 -20 14 -5
-14 9 -17 7 -18 -19 -10 -24 7 -29 5 -24 -6 3 -8 8 -12 12 -9 4 2 8 -2 8 -9 0
-11 -4 -12 -19 -3 -10 7 -18 16 -18 22 0 5 -5 2 -11 -8 -6 -9 -14 -15 -19 -12
-5 3 -11 -4 -15 -14 -4 -13 -12 -18 -23 -14 -13 4 -12 2 3 -10 20 -16 19 -16
-5 -12 -24 4 -25 4 -5 -12 16 -12 16 -14 3 -10 -11 4 -21 0 -27 -11 -5 -9 -13
-13 -18 -8 -4 5 -2 11 5 13 15 6 16 33 1 33 -5 0 -8 -4 -4 -9 3 -5 1 -12 -5
-16 -5 -3 -10 0 -10 7 0 9 -3 9 -10 -2 -5 -8 -10 -19 -10 -25 0 -5 5 -3 10 5
5 8 10 11 10 5 0 -5 -4 -16 -9 -24 -7 -11 -11 -8 -17 10 -4 13 -7 28 -6 32 1
5 -2 6 -7 3 -10 -6 -7 -37 4 -56 10 -16 -2 -12 -21 8 -17 16 -17 16 -12 -6 3
-12 3 -20 -2 -17 -4 3 -18 -4 -31 -14 -21 -17 -22 -21 -9 -37 13 -17 13 -18 0
-8 -27 20 -49 24 -43 9 3 -8 10 -12 16 -8 6 3 7 1 3 -6 -6 -9 -11 -9 -21 -1
-9 8 -15 8 -20 0 -3 -6 -11 -7 -17 -4 -7 4 -8 2 -4 -5 6 -9 11 -9 22 0 12 10
13 9 8 -4 -3 -8 -12 -18 -20 -21 -8 -3 -13 -2 -10 3 6 10 -24 25 -32 16 -3 -3
0 -5 6 -5 7 0 12 -5 12 -11 0 -5 -4 -8 -9 -4 -5 3 -12 1 -16 -5 -4 -6 -11 -7
-17 -4 -7 4 -8 2 -4 -5 4 -6 11 -9 16 -6 9 6 23 -25 15 -33 -3 -3 -5 -1 -5 4
0 5 -9 10 -20 11 -22 2 -27 -13 -7 -20 6 -3 2 -4 -10 -4 -12 1 -20 4 -17 8 3
6 -4 6 -35 0 -2 -1 2 -7 8 -14 8 -10 7 -14 -4 -14 -8 0 -15 4 -15 9 0 5 -5 6
-11 3 -6 -5 -4 -11 6 -19 15 -11 15 -13 2 -25 -12 -9 -17 -9 -23 0 -5 8 -3 9
6 4 9 -5 11 -4 6 4 -4 6 -13 8 -19 4 -7 -4 -16 -8 -22 -8 -5 0 -11 -13 -12
-30 -1 -20 1 -25 6 -16 5 8 7 19 5 26 -3 6 2 12 10 12 8 0 13 -4 10 -9 -3 -5
0 -17 8 -26 12 -15 11 -16 -4 -4 -14 11 -17 10 -23 -8 -7 -20 -7 -21 -22 -3
-8 10 -12 12 -8 6 3 -7 1 -13 -4 -13 -6 0 -10 -3 -9 -7 3 -10 -30 -59 -37 -55
-14 7 -45 0 -43 -9 2 -6 -3 -14 -11 -17 -9 -3 -11 0 -6 9 6 11 5 11 -4 3 -7
-6 -13 -20 -14 -32 -1 -14 -7 -19 -22 -16 -20 3 -20 3 -1 -11 23 -17 14 -20
-14 -5 -21 11 -38 -4 -19 -16 8 -5 9 -3 4 6 -5 9 -4 11 4 6 16 -10 4 -26 -15
-19 -14 5 -14 3 -6 -14 9 -17 7 -19 -19 -17 -16 1 -31 -2 -34 -6 -3 -5 6 -7
20 -5 14 1 28 -2 32 -8 3 -6 1 -7 -5 -3 -7 4 -12 2 -12 -4 0 -6 -4 -8 -10 -5
-5 3 -20 -1 -32 -11 -14 -10 -16 -14 -6 -11 12 4 16 1 15 -13 -1 -15 -4 -17
-16 -7 -12 10 -14 9 -7 -7 7 -20 7 -20 -15 0 l-22 19 13 -24 c11 -21 10 -23
-4 -18 -10 4 -16 1 -16 -9 0 -8 4 -12 10 -9 6 3 7 -1 4 -10 -6 -14 -8 -14 -20
2 -12 17 -13 16 -14 -5 0 -13 -4 -20 -10 -17 -5 3 -10 -1 -10 -10 0 -10 5 -13
12 -9 7 4 8 3 4 -4 -5 -9 -13 -9 -28 -1 -15 8 -19 8 -14 0 4 -6 -3 -15 -16
-20 -13 -6 -18 -10 -13 -10 12 -1 12 -47 0 -58 -4 -5 -5 -3 -1 4 3 6 2 14 -4
18 -6 4 -7 11 -4 17 4 6 2 8 -4 5 -5 -4 -8 -17 -4 -29 4 -16 2 -19 -9 -13 -11
7 -12 6 -2 -7 15 -17 8 -28 -19 -28 -19 0 -25 -16 -8 -22 6 -2 0 -9 -12 -17
-21 -13 -22 -13 -9 2 7 10 9 17 4 17 -5 0 -17 -16 -26 -35 -9 -19 -22 -35 -29
-35 -6 0 -9 -3 -5 -6 3 -3 12 -2 19 2 19 12 39 14 32 3 -3 -5 -8 -7 -12 -5 -4
2 -13 -2 -20 -10 -7 -8 -8 -14 -2 -14 5 0 10 -5 10 -11 0 -6 -7 -8 -15 -5 -11
4 -19 -3 -25 -19 -5 -14 -12 -25 -15 -25 -4 0 -3 5 1 12 4 7 3 8 -4 4 -13 -8
-5 -36 11 -36 6 0 7 -3 4 -6 -4 -4 -14 -1 -23 7 -16 13 -16 12 -6 -7 9 -16 8
-21 -3 -21 -8 0 -12 4 -9 8 2 4 -1 11 -7 15 -7 4 -9 3 -5 -4 3 -6 2 -13 -4
-17 -6 -4 -8 -11 -5 -16 11 -18 -6 -31 -23 -17 -12 10 -12 7 2 -14 18 -27 14
-34 -16 -29 -17 2 -7 -10 15 -20 l22 -10 -23 5 c-19 4 -22 1 -16 -17 6 -22 6
-22 -9 -2 -8 11 -13 24 -10 29 4 5 1 6 -6 2 -9 -6 -9 -11 1 -24 11 -14 10 -15
-7 -9 -20 7 -20 7 -1 -8 18 -14 15 -20 -7 -16 -5 1 -6 -3 -2 -8 3 -6 11 -9 18
-7 7 1 9 1 5 -1 -4 -2 -4 -12 -1 -21 4 -14 3 -14 -5 -3 -9 12 -13 12 -26 2 -9
-7 -13 -18 -9 -24 4 -7 -1 -8 -13 -4 -18 7 -18 7 0 -8 17 -13 17 -15 4 -15 -9
0 -20 -5 -24 -12 -4 -6 -3 -8 3 -5 6 4 13 -2 16 -14 4 -16 3 -18 -8 -9 -10 8
-13 7 -11 -7 0 -10 6 -21 11 -26 6 -4 -2 -5 -17 -3 -15 3 -31 0 -34 -6 -4 -6
-3 -8 2 -5 6 3 16 2 24 -4 12 -7 11 -9 -5 -10 -11 -1 -24 0 -30 1 -5 1 -7 -2
-3 -6 4 -4 2 -14 -5 -22 -8 -11 -3 -10 18 3 30 19 30 19 13 0 -9 -11 -18 -27
-20 -35 -2 -8 -7 -19 -13 -23 -5 -5 1 -5 14 -2 16 5 21 4 17 -4 -4 -6 -15 -11
-24 -12 -11 0 -12 -2 -4 -6 6 -2 10 -9 7 -13 -3 -5 -13 -6 -22 -3 -13 5 -15 1
-11 -20 4 -23 3 -25 -13 -16 -24 12 -24 6 -1 -17 16 -17 16 -17 -5 -12 -13 3
-23 2 -23 -3 0 -5 9 -9 20 -9 17 0 19 -2 8 -14 -7 -8 -16 -12 -20 -9 -4 2 -5
-3 -2 -11 3 -9 10 -14 14 -11 5 3 12 1 15 -5 4 -6 3 -10 -2 -9 -20 4 -24 -2
-12 -18 13 -15 12 -15 -8 -5 -14 8 -24 9 -28 2 -4 -6 -11 -7 -17 -4 -7 4 -8 2
-4 -5 4 -6 12 -9 17 -6 5 4 9 1 9 -5 0 -6 5 -8 13 -4 9 6 9 5 0 -8 -7 -8 -9
-19 -5 -23 4 -5 1 -5 -6 -1 -7 4 -10 11 -8 15 3 4 -1 8 -9 8 -10 0 -9 -8 7
-31 l22 -31 -24 20 -23 20 13 -25 c10 -21 10 -23 -1 -12 -16 15 -29 16 -29 1
0 -5 5 -7 10 -4 6 3 10 -1 10 -10 0 -10 5 -13 13 -9 8 5 8 2 -2 -9 -9 -11 -10
-17 -2 -17 6 0 11 -6 11 -12 -1 -7 -8 -4 -18 8 -14 17 -20 18 -30 8 -9 -10 -8
-14 7 -19 11 -3 25 -13 32 -23 11 -14 11 -15 -1 -4 -18 15 -34 16 -24 0 4 -6
3 -8 -3 -5 -6 4 -13 0 -16 -7 -4 -10 0 -14 13 -11 11 2 23 -1 26 -7 4 -6 2 -8
-4 -4 -6 3 -13 2 -16 -3 -3 -5 -16 -7 -29 -4 -12 3 -18 1 -12 -4 14 -11 17
-33 4 -33 -5 0 -7 -5 -3 -11 5 -8 9 -8 14 1 5 9 9 9 14 1 4 -6 2 -11 -4 -11
-6 0 -9 -4 -6 -9 6 -10 -28 -44 -36 -36 -3 3 -4 -8 -3 -25 2 -24 -1 -30 -13
-25 -12 5 -13 3 -2 -10 16 -19 30 -3 25 27 -2 11 5 22 18 29 19 8 20 8 7 -3
-18 -16 -22 -60 -6 -71 7 -6 4 -7 -7 -3 -12 4 -17 2 -14 -6 2 -7 13 -12 23
-11 18 1 18 1 2 -11 -20 -15 -25 -31 -6 -20 7 4 8 3 4 -5 -10 -15 -29 -3 -22
15 3 8 1 14 -5 14 -7 0 -9 -10 -4 -27 6 -24 5 -25 -11 -12 -16 13 -16 12 -3
-8 10 -16 16 -19 22 -10 6 8 7 8 4 -3 -2 -8 -11 -15 -18 -14 -8 1 -15 -7 -15
-17 0 -22 12 -25 19 -6 2 6 4 0 3 -15 -1 -20 -4 -24 -17 -18 -12 7 -15 3 -13
-21 1 -17 6 -33 10 -37 4 -4 4 1 1 10 -3 10 -3 19 1 22 19 12 8 -35 -11 -49
-12 -8 -16 -15 -9 -15 7 0 11 -13 10 -32 -1 -59 0 -62 20 -47 15 12 15 12 5
-1 -6 -8 -11 -19 -11 -23 0 -5 -4 -12 -8 -15 -4 -4 -4 -1 0 5 5 9 2 11 -9 6
-11 -4 -13 -8 -5 -13 6 -4 10 -11 9 -16 -1 -5 -1 -15 0 -23 1 -11 4 -11 19 0
15 12 15 12 5 -1 -6 -8 -11 -19 -11 -23 0 -5 -4 -12 -8 -15 -4 -4 -4 -1 0 5 5
9 2 11 -9 6 -11 -4 -13 -8 -5 -13 6 -4 10 -11 9 -16 -1 -5 -1 -15 0 -23 1 -11
4 -11 19 0 15 12 15 12 5 -1 -6 -8 -11 -19 -11 -23 0 -5 -4 -12 -8 -15 -4 -4
-4 -1 0 5 5 9 2 11 -9 6 -11 -4 -13 -8 -5 -13 6 -4 10 -11 9 -16 -1 -5 -1 -15
0 -23 1 -11 4 -11 19 0 15 12 15 12 5 -1 -6 -8 -11 -19 -11 -23 0 -5 -4 -12
-8 -15 -4 -4 -4 -1 0 5 5 9 2 11 -9 6 -9 -3 -13 -9 -8 -12 14 -9 13 -163 -1
-180 -8 -11 -8 -13 0 -8 7 4 17 0 23 -7 9 -11 9 -16 0 -22 -8 -4 -9 -3 -5 4 5
8 1 10 -10 5 -15 -5 -15 -7 0 -15 11 -6 13 -15 8 -31 -4 -12 -7 -29 -6 -37 1
-8 2 -20 3 -27 0 -6 9 -14 19 -16 16 -4 16 -5 -1 -6 -10 0 -16 -5 -12 -11 3
-5 13 -7 23 -4 9 3 6 -1 -7 -9 -18 -11 -20 -16 -10 -20 12 -4 12 -6 0 -6 -11
-1 -11 -4 0 -17 10 -13 10 -17 0 -24 -9 -5 -10 -10 -2 -14 6 -4 11 -2 11 4 0
6 5 8 12 4 7 -5 8 -3 3 6 -12 20 -15 60 -3 60 5 0 6 -9 3 -21 -6 -19 -5 -20
17 -9 21 10 21 10 5 -3 -20 -16 -23 -32 -4 -21 6 4 1 -5 -12 -19 -23 -26 -17
-39 6 -16 9 9 11 7 8 -7 -1 -11 -8 -18 -13 -17 -21 5 -1 -25 20 -31 18 -4 19
-8 9 -20 -7 -8 -10 -24 -6 -35 4 -13 0 -23 -12 -30 -10 -6 -13 -11 -6 -11 14
0 13 -42 -2 -53 -5 -5 -1 -6 10 -3 17 5 20 0 22 -27 2 -24 0 -28 -7 -17 -5 8
-10 11 -10 5 0 -5 10 -21 23 -35 12 -14 18 -21 14 -14 -4 7 -3 15 3 19 6 4 9
1 8 -7 -2 -7 3 -12 11 -10 12 3 12 1 1 -13 -17 -21 -22 -45 -8 -45 6 0 7 8 3
18 -5 13 -4 14 6 5 10 -10 9 -17 -7 -34 -10 -13 -13 -19 -5 -14 11 6 13 4 8
-10 -10 -25 11 -49 30 -33 11 9 13 8 11 -3 -2 -8 3 -13 10 -11 8 1 11 -2 6 -9
-3 -6 -10 -26 -14 -44 -6 -25 -4 -32 5 -29 7 3 16 0 21 -7 4 -7 3 -10 -3 -6
-6 4 -19 -1 -29 -9 -10 -9 -13 -13 -7 -9 7 3 21 1 30 -5 16 -10 16 -11 1 -6
-12 3 -15 1 -11 -9 3 -8 8 -13 12 -11 4 3 13 1 20 -3 10 -6 9 -10 -4 -14 -9
-4 -13 -3 -10 3 4 6 -1 7 -11 3 -11 -4 -13 -8 -6 -11 7 -2 12 -10 12 -18 0
-10 8 -13 27 -9 16 3 22 2 15 -1 -6 -3 -10 -10 -7 -14 3 -5 0 -12 -6 -16 -8
-5 -9 -3 -4 6 5 9 4 11 -4 6 -6 -4 -9 -12 -5 -17 3 -5 10 -7 15 -4 5 4 9 2 9
-4 0 -5 3 -18 7 -28 6 -16 5 -16 -11 -4 -16 13 -16 12 1 -16 15 -28 19 -29 30
-15 7 10 12 13 11 7 -2 -13 23 -65 31 -65 4 0 8 -14 9 -31 1 -18 -2 -28 -7
-24 -6 3 -8 12 -4 20 3 8 0 15 -7 15 -6 0 -8 -4 -5 -10 3 -5 1 -10 -6 -10 -7
0 -4 -6 6 -14 11 -8 25 -11 32 -9 10 4 13 -2 9 -20 -4 -24 -2 -25 19 -17 19 7
23 6 19 -4 -3 -8 -1 -17 5 -20 6 -4 8 -13 5 -20 -3 -8 0 -17 5 -21 6 -3 9 -10
6 -15 -3 -4 5 -6 17 -3 22 5 22 5 5 -9 -18 -13 -18 -15 -1 -29 11 -8 15 -9 10
-2 -5 9 -1 13 10 13 10 0 15 -3 11 -6 -3 -4 3 -14 15 -24 16 -13 18 -19 8 -25
-8 -5 -11 -4 -6 3 3 6 2 13 -3 16 -5 4 -12 2 -15 -3 -7 -11 22 -36 31 -28 3 4
12 2 20 -4 17 -15 18 -43 0 -33 -7 4 -9 3 -4 -2 5 -5 17 -10 28 -10 34 -3 37
-4 42 -25 3 -12 10 -18 16 -14 7 3 8 0 5 -9 -3 -9 -11 -16 -17 -16 -6 0 -8 -3
-4 -6 3 -3 12 -2 19 2 15 10 42 15 34 7 -11 -12 15 -42 32 -37 14 5 15 4 2 -5
-12 -9 -20 -5 -38 17 -17 19 -21 21 -13 6 6 -12 7 -25 3 -29 -4 -5 -2 -5 4 -2
7 4 17 0 24 -8 11 -14 15 -14 34 2 19 16 19 16 7 1 -19 -26 -7 -48 23 -42 15
2 26 0 26 -6 0 -5 -5 -10 -12 -10 -6 0 -3 -6 7 -14 11 -8 31 -12 45 -10 21 3
20 1 -7 -12 -40 -17 -44 -28 -6 -13 19 7 29 7 31 0 2 -6 8 -11 13 -11 6 0 7 5
3 12 -4 6 -3 8 4 4 6 -3 9 -19 6 -34 -3 -20 -2 -23 6 -12 6 9 10 10 10 3 0 -8
14 -11 43 -8 23 3 38 1 32 -3 -5 -4 -11 -13 -13 -21 -2 -11 0 -12 10 -4 7 6
21 10 30 10 13 0 15 -4 8 -17 -6 -12 -4 -23 6 -36 15 -18 15 -18 6 1 -7 15 -6
24 5 34 13 12 14 11 9 -5 -3 -10 -1 -26 5 -34 9 -13 10 -12 5 2 -3 12 -1 15 9
11 8 -3 12 -9 9 -14 -3 -5 0 -9 5 -9 6 0 11 5 11 12 0 6 3 8 7 4 5 -4 -1 -14
-12 -23 -20 -15 -20 -15 0 -11 11 2 19 -2 18 -8 -1 -6 5 -11 13 -11 8 0 14 4
14 9 0 4 -4 8 -10 8 -5 0 -10 5 -10 10 0 6 10 4 23 -5 13 -8 27 -12 30 -8 4 3
7 1 7 -6 0 -8 -7 -11 -17 -6 -15 5 -16 4 -5 -7 11 -11 16 -10 28 6 8 11 14 14
14 8 0 -7 3 -11 8 -11 22 4 32 -3 32 -22 0 -17 5 -19 30 -15 17 2 28 1 25 -4
-8 -13 22 -19 34 -7 8 8 11 8 11 -1 0 -7 5 -12 11 -12 5 0 8 4 5 8 -3 5 1 9 9
9 8 0 11 -5 8 -10 -4 -6 3 -8 18 -4 22 5 22 5 6 -7 -16 -12 -16 -14 -2 -20 9
-3 13 -2 10 4 -3 6 1 10 9 10 10 0 13 -8 10 -28 -3 -19 -2 -23 5 -12 5 8 7 18
5 22 -3 4 -1 8 5 8 5 0 12 -6 14 -12 4 -10 6 -10 6 0 1 15 47 16 57 0 5 -7 3
-8 -7 -3 -12 8 -12 6 0 -8 15 -18 26 -23 16 -7 -3 5 0 10 9 10 8 0 17 -6 19
-12 3 -7 6 -3 6 10 1 12 6 22 12 22 5 0 8 -4 5 -8 -2 -4 -1 -14 5 -22 6 -10 9
-11 9 -2 0 6 11 12 25 12 23 0 30 -10 26 -33 -1 -5 3 -6 8 -3 5 4 8 16 6 27
-4 20 -3 20 14 5 20 -18 46 -22 35 -4 -4 7 -3 8 4 4 6 -4 9 -13 6 -20 -3 -8 0
-17 7 -22 8 -4 10 -3 5 4 -4 7 -2 12 4 12 6 0 8 5 4 12 -4 7 -3 8 5 4 6 -4 9
-11 7 -15 -3 -4 4 -13 16 -20 16 -10 19 -10 12 1 -19 31 -11 39 12 12 14 -16
23 -23 19 -17 -4 8 0 13 9 13 9 0 16 5 16 12 0 6 3 8 6 5 4 -4 1 -13 -6 -22
-7 -8 -9 -15 -4 -16 5 0 17 -2 26 -4 10 -2 15 2 12 9 -3 8 6 12 25 11 23 0 27
-3 19 -13 -6 -7 -8 -15 -4 -19 3 -3 6 -1 6 6 0 8 8 11 19 8 13 -3 21 1 24 12
3 10 5 6 6 -9 1 -19 3 -22 10 -10 6 8 7 18 4 24 -3 5 -1 6 6 2 6 -4 9 -11 6
-16 -7 -11 22 -7 32 5 4 4 2 5 -6 0 -10 -5 -12 -4 -7 4 4 6 12 9 17 5 5 -3 7
-9 4 -14 -3 -5 -1 -11 5 -15 6 -3 10 4 11 17 0 13 3 17 6 10 2 -7 14 -17 25
-23 15 -8 19 -8 14 0 -4 6 -2 11 4 11 6 0 8 5 4 12 -4 7 -3 8 4 4 6 -4 9 -14
6 -24 -4 -10 -2 -13 3 -7 4 6 15 10 23 10 8 0 20 6 27 15 6 8 15 12 19 7 4 -4
2 -7 -4 -7 -7 0 -12 -8 -12 -17 0 -11 3 -14 8 -7 14 21 56 28 58 9 0 -5 2 -17
3 -25 1 -10 4 -11 9 -4 4 7 16 13 27 15 11 3 20 9 20 16 0 6 4 15 8 20 5 4 7
3 5 -2 -6 -21 27 -50 60 -52 17 -1 32 3 32 8 0 6 -4 7 -10 4 -6 -4 -7 1 -3 11
4 12 8 14 11 5 3 -8 8 -7 19 6 8 10 12 13 9 6 -8 -15 10 -27 19 -13 3 5 12 10
18 10 9 0 9 -2 0 -8 -8 -5 -8 -13 2 -32 8 -14 14 -20 15 -13 0 13 17 12 40 -2
13 -8 13 -7 0 11 -8 10 -16 21 -17 23 -1 2 -9 -2 -18 -9 -10 -8 -15 -9 -15 -1
0 6 5 11 11 11 5 0 7 5 3 11 -5 8 -1 8 14 0 15 -8 23 -7 32 5 12 13 16 12 35
-6 12 -11 25 -20 30 -20 5 0 0 6 -10 14 -17 12 -17 13 8 18 15 3 24 2 22 -3
-3 -4 -1 -10 5 -14 6 -3 10 4 10 17 0 17 3 19 9 9 7 -10 13 -11 32 -1 20 10
22 10 12 -1 -7 -7 -13 -18 -13 -24 0 -5 4 -4 9 4 8 12 12 12 24 2 9 -7 18 -8
21 -2 3 5 17 8 31 6 14 -1 25 2 25 7 0 5 10 4 21 -3 13 -7 19 -7 15 -1 -3 6
-2 13 4 17 9 5 14 -7 11 -27 0 -4 6 -5 14 -2 8 4 15 10 15 16 0 5 -5 6 -12 2
-7 -4 -8 -3 -4 5 6 9 11 9 21 1 9 -8 15 -6 20 7 5 10 7 22 6 28 -2 5 1 6 5 2
11 -11 14 -38 3 -31 -5 3 -9 0 -9 -5 0 -6 4 -11 9 -11 13 0 32 26 24 34 -4 4
0 4 10 0 13 -5 16 -2 11 11 -7 16 -5 16 14 -1 17 -14 19 -21 9 -33 -10 -14
-10 -14 4 -4 9 7 20 9 25 5 4 -4 3 0 -4 9 -10 13 -9 19 5 30 17 13 17 13 3 -5
-14 -18 -13 -19 3 -13 10 4 28 2 40 -5 20 -10 21 -9 9 5 -11 13 -10 15 9 10
13 -4 20 -2 16 3 -3 6 3 11 14 11 10 1 19 -2 19 -7 0 -4 7 -10 15 -14 12 -4
13 -2 6 13 -8 14 -6 17 10 16 11 -1 25 -8 30 -16 7 -11 9 -11 9 0 0 11 3 11
17 0 15 -12 16 -12 11 2 -5 13 -2 16 13 12 11 -3 16 -10 12 -17 -4 -7 -1 -7 8
1 12 10 18 10 29 0 10 -10 11 -9 5 2 -6 11 -4 13 10 7 16 -6 16 -4 4 11 -7 10
-10 15 -5 11 12 -10 48 11 40 23 -3 6 3 5 14 -2 11 -7 18 -19 15 -28 -3 -11
-1 -10 7 2 10 15 8 21 -7 33 -17 14 -17 15 3 5 12 -6 25 -7 29 -3 5 4 5 1 0
-7 -11 -20 -15 -62 -5 -56 5 3 6 13 3 21 -5 14 -3 15 18 5 20 -10 22 -10 8 1
-15 13 -15 15 2 37 11 13 19 19 19 14 0 -5 -6 -15 -12 -22 -11 -10 -10 -11 5
-6 9 4 17 12 17 19 0 7 3 7 8 1 9 -13 46 -20 38 -7 -3 5 1 9 9 9 8 0 15 -4 15
-8 0 -9 41 -6 57 4 6 4 19 4 30 0 13 -4 11 -1 -6 14 -18 15 -20 20 -8 20 9 0
14 -4 11 -9 -3 -4 0 -8 5 -8 6 0 11 7 11 15 0 8 5 15 11 15 6 0 9 -7 6 -14 -4
-10 -1 -13 9 -9 10 3 12 13 8 27 -6 20 -6 20 8 2 12 -15 17 -16 23 -6 6 9 4
11 -5 5 -9 -5 -11 -4 -6 4 4 6 12 9 17 5 5 -3 7 -9 4 -14 -3 -5 0 -12 6 -16 7
-4 9 -3 6 3 -4 6 5 19 19 28 15 9 24 13 20 7 -3 -5 1 -13 10 -16 19 -7 56 32
49 52 -3 7 0 10 5 7 12 -7 9 -37 -4 -46 -4 -4 -3 -10 3 -13 6 -4 11 -2 11 4 0
6 4 9 8 6 4 -2 14 0 22 6 12 8 12 9 -2 4 -10 -3 -20 -1 -23 4 -5 9 24 15 48
11 5 -1 6 3 2 9 -3 5 1 10 9 10 8 0 18 -5 21 -10 4 -6 11 -8 16 -4 5 3 7 9 4
13 -2 5 6 9 20 9 14 0 22 -4 20 -9 -3 -4 -1 -11 5 -14 6 -4 9 -1 8 7 -2 7 3
12 10 11 6 -2 12 2 12 8 0 6 -7 9 -15 5 -13 -5 -14 -2 -4 17 15 28 24 37 16
15 -3 -9 0 -19 8 -22 10 -3 12 0 8 12 -3 9 -2 14 2 9 5 -4 16 0 26 9 11 10 19
12 24 4 3 -6 1 -9 -6 -8 -6 2 -14 -4 -16 -12 -3 -10 -2 -11 4 -4 4 6 15 10 24
9 12 -2 15 3 12 19 -4 17 -3 18 6 6 10 -15 64 -23 55 -9 -2 4 0 10 6 14 5 3
10 0 10 -7 0 -7 8 -1 18 15 9 15 20 27 25 27 4 0 5 6 1 13 -4 6 2 3 14 -7 22
-19 22 -19 22 3 0 12 4 19 10 16 6 -4 7 -12 3 -18 -4 -7 1 -6 10 2 15 12 16
15 2 25 -13 9 -11 11 10 12 14 1 25 -2 25 -8 0 -5 -4 -7 -8 -4 -5 3 -8 -4 -7
-14 1 -11 3 -21 6 -22 2 -2 3 -1 2 1 -7 11 19 39 32 35 8 -4 15 -1 15 6 0 6
-4 9 -9 5 -5 -3 -13 0 -17 6 -4 7 -3 9 4 5 5 -3 13 0 15 6 4 10 6 10 6 1 1 -7
8 -10 16 -7 11 5 14 2 9 -12 -4 -11 6 -3 21 16 15 19 25 27 22 18 -4 -10 -2
-18 3 -18 6 0 10 5 10 10 0 6 7 10 15 10 9 0 12 -6 9 -17 -5 -15 -4 -16 5 -3
6 9 7 18 1 24 -15 15 -12 22 12 23 18 2 20 0 8 -7 -9 -6 -10 -10 -3 -10 7 0
16 6 20 13 4 8 16 17 26 20 11 4 15 12 11 18 -5 8 -3 9 6 4 9 -6 12 -4 8 7 -4
8 0 15 8 15 7 0 11 -4 9 -8 -3 -3 4 -9 15 -12 13 -3 18 -1 13 6 -4 7 0 8 12 3
15 -5 16 -4 5 9 -11 13 -10 14 4 9 9 -3 16 -9 16 -13 0 -13 29 -8 34 6 3 7 11
13 18 13 10 0 10 -2 0 -9 -11 -7 -10 -9 3 -14 9 -4 13 -3 10 3 -3 6 0 10 7 10
10 0 10 2 -1 9 -11 7 -11 13 3 32 9 13 16 20 16 15 0 -5 6 -3 14 3 9 8 16 8
20 2 4 -6 13 -8 21 -5 8 4 12 11 9 16 -4 6 -10 5 -16 -3 -7 -11 -8 -9 -4 4 3
10 6 21 6 23 0 2 5 4 11 4 5 0 7 -4 4 -10 -3 -5 1 -10 10 -10 11 0 15 5 11 16
-3 8 -2 13 3 9 5 -3 11 -2 14 2 2 5 2 2 0 -6 -3 -11 2 -10 16 3 11 10 18 23
15 27 -3 5 0 9 5 9 6 0 12 -4 12 -10 1 -5 2 -14 3 -19 3 -23 14 -20 12 3 -3
20 1 26 17 26 16 0 17 3 8 14 -10 12 -8 13 8 9 12 -3 18 -9 15 -14 -3 -5 0 -9
5 -9 6 0 11 10 11 23 0 18 2 19 10 7 5 -8 10 -11 10 -6 0 5 6 3 14 -3 11 -9
16 -9 22 1 4 7 4 10 -1 6 -9 -9 -35 9 -35 23 0 5 5 9 11 9 5 0 7 -4 4 -10 -3
-5 1 -10 9 -10 8 0 18 5 22 12 4 6 3 8 -3 5 -5 -3 -10 0 -10 8 0 13 26 13 46
0 5 -3 13 0 17 6 4 7 3 9 -4 5 -6 -3 -13 -2 -16 3 -7 11 13 9 33 -3 10 -6 12
-5 7 2 -4 7 3 17 18 24 24 10 31 20 27 41 -1 5 3 6 9 2 5 -3 10 -1 10 6 0 7 3
9 6 6 4 -4 1 -13 -5 -21 -8 -10 -9 -16 -1 -21 6 -4 10 -3 9 2 -3 20 2 27 12
13 8 -11 9 -9 3 10 -6 22 -5 23 9 12 13 -11 15 -10 10 10 -4 18 -3 20 6 8 8
-12 11 -12 11 -1 0 8 6 11 16 7 9 -4 13 -2 8 5 -4 7 -1 10 7 7 8 -3 13 -11 11
-17 -1 -7 2 -10 8 -6 6 3 8 10 5 15 -3 4 2 10 10 14 8 3 15 11 15 18 0 9 -3 9
-12 0 -15 -15 -28 -15 -28 -1 0 5 4 8 9 4 5 -3 12 -1 16 5 4 6 11 7 17 4 8 -5
9 -1 5 12 -6 17 -6 17 5 3 13 -16 38 -15 38 2 0 6 -6 7 -12 3 -10 -5 -10 -3 0
7 9 10 15 10 20 3 8 -13 44 -15 36 -2 -3 5 -10 5 -16 2 -5 -4 -4 4 2 17 17 32
17 32 24 14 3 -9 2 -13 -4 -10 -15 9 -12 -1 4 -14 12 -10 14 -8 12 13 -2 14 1
23 5 20 5 -3 9 0 9 6 0 6 5 8 10 5 6 -4 7 -11 4 -17 -4 -6 -2 -8 4 -4 6 3 9
20 7 36 -3 25 -2 28 9 17 10 -8 11 -16 4 -24 -20 -24 3 -13 27 13 14 15 22 31
19 36 -4 6 3 5 14 -1 14 -7 23 -8 27 -1 4 6 10 8 14 6 4 -3 8 1 8 9 0 13 -3
13 -17 0 -14 -13 -17 -13 -17 0 0 8 5 11 10 8 6 -4 8 0 4 10 -4 12 -2 14 10
10 8 -3 19 0 25 8 8 11 9 11 5 -3 -6 -18 19 -33 29 -17 4 6 11 6 19 -1 12 -10
13 -8 10 10 -4 19 -2 20 12 8 12 -9 15 -9 9 0 -5 8 -1 12 11 13 13 1 11 3 -7
9 -25 8 -25 8 -2 9 13 1 21 5 17 10 -3 5 0 13 6 17 7 4 9 3 5 -4 -3 -6 -2 -13
4 -17 5 -3 10 1 10 10 0 11 5 15 14 12 15 -6 30 19 20 34 -10 17 5 9 27 -13
12 -13 19 -17 15 -11 -4 7 -9 21 -11 32 -3 15 1 18 18 13 20 -5 21 -4 7 13
-14 17 -14 18 8 6 15 -8 22 -8 22 -1 0 7 9 9 23 5 17 -5 19 -4 7 4 -13 10 -8
15 12 12 4 0 5 6 2 14 -4 8 -11 12 -17 8 -6 -3 -7 -1 -3 6 4 6 12 9 17 5 5 -3
16 0 24 6 12 10 15 10 15 -1 1 -9 4 -8 11 4 6 9 14 15 19 12 4 -3 7 10 5 27
-2 18 -1 25 1 16 7 -23 24 -23 24 -2 0 14 2 15 17 3 15 -13 15 -12 4 9 -7 13
-10 26 -7 30 3 3 6 0 6 -7 0 -7 5 -9 10 -6 6 4 7 11 4 17 -4 7 -2 8 5 4 7 -4
9 -17 6 -29 -5 -19 -5 -20 5 -4 6 9 8 22 4 29 -5 8 0 9 16 5 16 -4 20 -3 13 4
-6 6 -8 20 -5 31 3 12 7 16 12 8 5 -7 11 -6 21 6 9 12 10 15 2 10 -7 -4 -13
-2 -13 3 0 6 11 11 25 11 17 0 23 4 19 14 -3 8 -1 17 5 20 6 4 8 14 5 24 -5
14 -4 14 4 2 7 -9 7 -19 2 -25 -7 -8 -5 -12 5 -12 7 0 13 5 12 11 -1 6 6 10
16 10 12 -1 15 2 8 10 -6 7 -6 17 -1 26 5 8 7 17 4 21 -2 4 1 11 7 15 8 4 9 3
5 -4 -5 -8 0 -12 13 -12 11 0 23 5 27 12 5 8 2 9 -9 5 -10 -3 -17 -4 -17 -1 0
2 12 9 28 15 26 10 27 11 7 26 -20 15 -20 15 2 8 12 -3 32 -1 43 5 18 10 19
14 8 28 -11 13 -11 15 4 9 9 -3 22 0 28 8 16 19 21 54 7 51 -7 -1 -9 -1 -4 1
4 3 7 12 7 21 0 13 3 12 15 -4 13 -18 14 -18 9 8 -2 15 1 30 7 34 7 4 9 3 6
-3 -3 -5 0 -10 7 -10 8 0 12 7 9 15 -5 12 -2 12 18 3 20 -10 21 -10 9 1 -30
26 -41 46 -30 53 6 4 9 1 8 -6 -2 -6 3 -14 11 -16 9 -4 11 0 7 13 -3 11 -1 26
5 34 8 12 9 9 4 -10 -5 -23 -5 -23 8 -8 8 10 18 14 23 10 4 -4 2 1 -5 11 -11
14 -12 20 -2 30 7 7 11 7 9 2 -2 -6 1 -10 7 -10 5 0 9 2 8 5 -1 3 -5 14 -9 24
-6 15 -4 18 8 13 9 -3 24 1 35 8 10 8 13 15 7 15 -5 0 -16 -6 -23 -13 -10 -10
-11 -9 -6 6 4 9 11 17 17 17 5 0 6 5 2 12 -5 8 -2 9 11 4 15 -5 16 -4 5 9 -7
8 -17 12 -23 8 -6 -3 -7 -1 -3 5 4 6 12 9 19 6 7 -2 21 4 32 15 15 18 16 23 4
38 -9 11 -10 14 -1 9 8 -5 12 0 12 14 0 14 4 19 13 14 9 -6 9 -4 -1 8 -11 14
-10 17 6 22 10 4 19 14 19 22 0 15 -2 15 -13 -1 -7 -9 -19 -15 -26 -12 -11 4
-11 6 0 6 8 1 10 6 6 14 -4 6 -4 9 1 5 4 -4 14 -3 21 3 8 6 21 8 30 5 15 -6
15 -4 0 18 -11 18 -13 27 -4 32 7 5 8 2 3 -7 -6 -11 -5 -11 5 -2 14 13 4 37
-11 27 -6 -3 -5 3 3 15 7 12 19 19 26 16 7 -3 11 -1 7 4 -3 5 -2 11 2 14 5 2
3 2 -4 1 -6 -2 -14 3 -17 11 -3 9 0 12 10 8 10 -4 12 0 7 13 -6 17 -4 17 13
-1 10 -12 15 -15 10 -8 -5 7 -5 13 -2 13 4 0 2 10 -5 21 -8 15 -8 19 0 15 7
-5 10 7 7 38 -3 43 -2 45 18 34 17 -9 19 -8 9 3 -7 7 -13 17 -13 21 0 5 6 8
13 7 34 -4 41 2 18 17 -19 14 -25 14 -33 3 -8 -12 -9 -11 -5 1 2 8 14 15 26
15 13 0 27 9 32 20 9 18 9 18 -3 4 -8 -10 -20 -14 -32 -9 -18 6 -18 7 4 13 20
5 22 9 12 19 -16 16 -15 33 1 19 10 -8 14 -7 14 4 0 7 -5 13 -10 12 -15 -3
-26 75 -16 113 2 8 11 20 19 27 13 10 13 14 -3 30 -20 22 -22 34 -6 30 6 -1
14 5 16 13 4 12 3 12 -5 2 -14 -20 -22 -19 -34 1 -7 14 -7 22 2 30 8 9 10 8 5
-5 -4 -10 -3 -18 2 -18 20 0 22 14 6 32 -12 13 -13 18 -4 16 7 -2 15 7 17 20
4 23 -10 30 -22 10 -5 -7 -3 -8 6 -3 9 5 11 4 6 -3 -14 -22 -24 -12 -22 21 1
17 -3 36 -10 42 -10 7 -11 14 -3 25 9 13 10 13 6 -2 -3 -9 1 -19 9 -22 8 -3
13 -11 12 -17 -2 -6 4 -14 12 -16 9 -3 11 -1 5 4 -9 7 -12 15 -20 53 -2 8 -4
16 -5 18 -2 2 -4 15 -9 53 0 5 -5 8 -10 5 -10 -7 -9 20 2 30 12 12 8 26 -5 18
-7 -5 -8 -3 -3 7 12 19 14 49 2 42 -5 -3 -6 3 -3 15 5 13 1 22 -10 26 -14 5
-15 4 -5 -8 8 -10 9 -16 1 -21 -5 -3 -10 -5 -11 -3 -6 26 -5 39 3 44 7 4 1 15
-13 26 l-24 19 32 -16 c29 -13 32 -13 27 0 -4 8 -13 15 -22 15 -8 0 -13 3 -9
6 3 4 -2 14 -11 23 -10 9 -13 12 -6 8 7 -5 15 -3 20 4 4 7 3 10 -2 7 -5 -3
-18 3 -29 14 -18 18 -18 19 -1 12 14 -5 17 -3 14 7 -3 8 -11 13 -17 11 -7 -1
-10 2 -6 8 3 6 11 8 16 5 5 -4 9 -1 9 4 0 6 -7 11 -15 11 -14 0 -20 13 -15 35
8 38 8 45 1 41 -4 -3 -16 1 -27 8 -10 8 -25 12 -34 9 -12 -4 -12 -3 -1 5 7 5
10 15 6 21 -5 9 -11 9 -23 -1 -15 -11 -15 -11 -5 2 14 18 9 88 -8 104 -9 8
-10 7 -4 -4 8 -13 6 -13 -8 -1 -15 12 -15 31 -1 31 3 0 2 -4 -1 -10 -4 -6 1
-7 11 -3 11 4 13 8 6 11 -7 2 -9 9 -5 15 4 7 -5 4 -19 -5 -19 -13 -29 -15 -34
-6 -4 6 -3 9 2 5 5 -3 14 6 21 19 6 13 8 22 3 19 -4 -3 -19 4 -31 16 -13 11
-18 18 -11 14 7 -4 12 0 12 10 0 9 -4 13 -10 10 -5 -3 -10 -2 -10 4 0 6 -8 8
-17 5 -10 -3 -7 2 7 11 16 10 18 14 6 11 -13 -5 -17 -2 -13 9 9 22 -21 47 -47
39 -20 -6 -20 -6 -2 8 13 11 16 17 7 22 -6 4 -8 12 -5 18 4 7 2 8 -4 4 -7 -4
-12 -2 -12 4 0 6 -4 8 -10 5 -5 -3 -10 0 -10 7 0 9 -3 9 -10 -2 -5 -8 -10 -10
-10 -5 0 6 6 17 12 24 7 8 8 11 2 8 -6 -3 -16 3 -24 13 -8 10 -18 16 -23 13
-6 -3 -7 -1 -3 6 6 9 11 9 22 0 10 -8 14 -8 14 0 0 6 -5 11 -11 11 -5 0 -7 4
-4 10 4 6 -1 7 -12 3 -16 -6 -16 -5 -4 10 14 18 2 24 -15 7 -7 -7 -10 -1 -8
18 1 18 -3 29 -12 30 -8 1 -21 3 -29 4 -15 1 -11 12 6 14 5 1 14 2 19 3 6 0
10 6 10 12 0 8 -5 8 -15 -1 -12 -10 -15 -10 -15 1 0 10 -3 10 -11 2 -6 -6 -18
-9 -26 -6 -11 4 -10 8 4 19 15 11 15 13 2 14 -8 0 -20 -5 -27 -12 -7 -7 -12
-8 -12 -4 0 5 8 15 18 22 14 10 15 15 4 26 -11 11 -12 10 -6 -7 l7 -20 -20 20
c-16 15 -18 24 -10 35 9 12 9 13 -3 3 -22 -20 -32 -15 -19 9 12 22 12 22 -15
4 -27 -17 -27 -17 -16 4 8 15 9 25 2 32 -7 7 -10 5 -9 -5 1 -9 -2 -15 -8 -14
-5 1 -8 9 -7 19 2 9 -2 20 -9 24 -7 4 -9 3 -6 -3 4 -6 -1 -14 -10 -17 -10 -4
-14 -4 -10 0 4 4 1 14 -6 22 -10 13 -9 15 3 8 9 -4 8 -1 -2 7 -10 8 -18 23
-18 33 0 15 -2 16 -9 4 -6 -8 -7 -18 -4 -24 3 -5 1 -6 -5 -3 -5 4 -8 16 -5 27
3 12 0 20 -6 20 -7 0 -10 -4 -6 -9 3 -5 0 -13 -6 -17 -8 -4 -9 -3 -5 4 4 7 2
12 -5 12 -8 0 -7 5 2 17 10 11 10 14 2 9 -11 -6 -17 3 -15 25 1 3 -6 6 -13 6
-12 0 -12 -3 -2 -16 10 -14 10 -14 -4 -4 -9 7 -19 9 -24 5 -4 -4 -3 3 4 15 8
16 8 24 -1 29 -6 4 -8 3 -4 -4 3 -6 1 -14 -5 -18 -7 -4 -10 -3 -6 2 3 5 -1 20
-10 34 -8 14 -12 17 -9 8 8 -26 -11 -32 -26 -9 -8 13 -16 17 -23 11 -8 -6 -12
-5 -12 4 0 17 26 14 38 -5 5 -9 9 -10 9 -2 0 6 -5 15 -10 18 -6 4 -8 10 -5 15
3 4 -4 6 -15 3 -12 -3 -20 0 -20 6 0 7 5 9 12 5 7 -4 8 -3 4 4 -4 6 -14 8 -23
5 -10 -4 -14 -2 -10 4 9 14 -25 12 -36 -2 -5 -5 -6 0 -2 12 3 12 1 25 -6 29
-7 4 -9 3 -5 -4 3 -6 3 -13 -2 -16 -8 -5 -10 1 -14 43 -1 11 -5 18 -9 15 -4
-2 -10 3 -13 11 -3 8 -10 14 -14 13 -16 -5 -73 52 -66 64 5 7 2 8 -7 2 -20
-12 -49 -15 -49 -5 0 5 5 11 12 13 8 3 8 9 -1 24 -7 10 -10 12 -8 4 3 -9 -2
-25 -10 -35 -15 -20 -15 -19 -9 2 4 12 2 24 -5 29 -8 4 -9 3 -5 -4 5 -8 2 -10
-8 -6 -9 3 -14 10 -11 14 3 4 -2 11 -11 14 -24 9 -31 7 -14 -4 9 -6 10 -10 3
-10 -6 0 -15 5 -18 10 -4 6 -10 8 -15 5 -5 -3 -7 4 -5 16 3 13 0 19 -8 16 -7
-2 -21 0 -32 5 -19 8 -18 8 2 4 13 -2 27 3 35 13 10 13 10 14 -1 5 -16 -15
-48 -7 -56 14 -5 14 -4 15 6 5 7 -7 18 -13 23 -13 6 0 -1 8 -17 18 -15 10 -24
22 -20 27 5 4 3 5 -4 1 -7 -4 -9 -14 -6 -23 6 -15 5 -16 -9 -3 -9 8 -14 18
-12 21 3 5 -71 49 -83 49 -2 0 -1 -5 3 -12 5 -7 3 -8 -5 -4 -7 5 -10 14 -7 22
3 8 -1 14 -10 14 -8 0 -12 -4 -9 -10 9 -15 -1 -12 -14 4 -9 11 -9 16 0 22 8 4
9 3 5 -4 -11 -18 0 -14 15 6 7 9 9 14 5 10 -5 -4 -16 -2 -24 5 -13 9 -14 9 -8
0 11 -20 -14 -15 -32 5 -10 10 -13 12 -8 5 6 -10 4 -12 -8 -7 -9 3 -16 11 -16
17 0 6 -3 8 -6 4 -6 -6 -24 6 -51 35 -13 13 -21 14 -35 7 -17 -9 -18 -8 -10 8
8 15 5 23 -15 41 -16 14 -23 17 -20 7 5 -10 1 -14 -13 -12 -11 2 -23 7 -27 12
-5 4 -3 5 4 1 6 -3 15 -1 19 6 4 7 4 10 -1 6 -4 -4 -14 -3 -21 3 -8 7 -14 6
-20 -2 -5 -8 -3 -9 7 -4 12 8 12 6 0 -8 -21 -27 -34 -8 -15 21 17 26 17 27 -2
11 -23 -19 -42 -19 -54 1 -8 13 -11 13 -19 1 -7 -11 -11 -8 -17 10 -4 13 -7
27 -6 32 1 4 -4 6 -10 5 -7 -2 -12 2 -11 8 1 6 -4 11 -12 11 -8 0 -13 -3 -11
-6 2 -3 -2 -12 -9 -18 -11 -10 -15 -9 -20 6 -6 21 -26 32 -64 37 -22 3 -22 2
-5 -12 17 -13 16 -13 -8 -3 -16 7 -28 16 -28 21 0 5 4 7 8 4 4 -2 14 -1 22 4
10 6 1 8 -28 6 -23 -2 -45 0 -48 5 -2 4 5 6 16 4 12 -2 18 0 14 6 -3 6 -8 8
-11 5 -3 -3 -19 2 -35 10 -17 9 -27 11 -23 5 5 -9 -22 -10 -45 -1 -3 2 -9 2
-13 1 -5 -1 -6 3 -2 9 3 6 11 7 17 4 7 -4 8 -2 4 4 -4 7 -15 12 -24 12 -15 0
-15 2 -2 10 8 5 10 10 4 10 -6 0 -14 -3 -18 -7 -10 -10 -46 -11 -40 -1 3 4 1
8 -4 8 -5 0 -13 10 -19 22 -9 20 -10 20 -22 -10 -13 -30 -34 -46 -28 -21 1 6
-6 13 -16 14 -22 4 -36 15 -19 15 7 0 12 4 12 9 0 5 -14 8 -31 7 -17 -1 -37 3
-44 10 -9 10 -15 10 -25 1 -10 -9 -11 -9 -6 0 3 6 2 14 -3 18 -5 3 -14 -3 -20
-12 -6 -10 -11 -13 -11 -7 0 5 4 14 10 20 6 6 6 15 0 24 -8 13 -10 13 -10 -1
0 -10 -8 -15 -22 -13 -13 1 -23 3 -23 4 0 1 -21 3 -47 4 -25 0 -50 5 -55 10
-4 5 -3 6 4 2 6 -3 14 -2 17 3 6 10 -12 9 -29 -1 -5 -3 -19 -2 -30 3 -11 4
-16 8 -11 8 5 1 3 7 -3 15 -7 8 -23 13 -36 10 -16 -3 -23 0 -21 8 1 7 1 10 -1
6 -3 -5 -12 -8 -22 -8 -9 0 -22 -5 -27 -10 -7 -7 -11 -6 -11 4 0 8 4 13 9 10
4 -3 8 -1 8 4 0 11 -55 10 -67 -1 -4 -5 0 -5 9 -2 9 4 18 3 21 -2 3 -4 -10 -8
-29 -8 -19 0 -34 3 -34 8 0 4 -5 7 -11 7 -5 0 -7 -4 -4 -10 3 -6 -1 -7 -9 -4
-9 3 -13 11 -9 18 3 6 0 6 -8 -2 -11 -10 -16 -8 -27 10 -7 13 -11 15 -8 6 3
-12 1 -15 -9 -11 -8 3 -12 9 -9 15 3 5 0 9 -7 7 -29 -3 -40 1 -33 14 6 9 4 9
-8 -1 -9 -7 -20 -12 -24 -11 -22 4 -44 -2 -44 -12 0 -5 4 -8 8 -5 5 3 9 -1 9
-9 0 -13 -3 -12 -18 1 -10 9 -16 21 -12 27 3 6 1 7 -5 3 -7 -4 -12 -3 -12 1 0
5 -11 9 -25 9 -18 0 -22 -3 -14 -12 6 -7 16 -11 24 -8 7 3 16 1 19 -4 7 -12
-69 -10 -81 2 -5 5 -1 7 9 3 12 -4 15 -2 11 9 -3 7 -9 14 -13 14 -15 0 -20
-33 -8 -49 8 -10 5 -9 -10 3 -18 16 -20 22 -9 35 10 13 10 14 -3 6 -18 -12
-40 -13 -59 -1 -9 6 -12 5 -8 -1 4 -6 -2 -21 -13 -33 -11 -13 -20 -19 -20 -14
0 6 5 15 12 22 9 9 9 12 -3 12 -9 0 -20 -10 -26 -22 -8 -19 -10 -20 -16 -4 -4
9 -3 15 1 12 5 -3 9 1 9 9 0 8 -4 12 -9 9 -4 -3 -8 -1 -8 3 0 5 -11 9 -25 9
-15 0 -21 -4 -16 -10 5 -6 8 -19 8 -29 0 -14 -3 -15 -16 -4 -9 7 -35 12 -59
11 -23 -1 -44 2 -47 6 -3 5 6 7 20 6 14 -2 30 4 37 13 11 13 11 14 -2 6 -17
-12 -40 -13 -56 -3 -6 4 -11 0 -11 -10z m162 -10 c-3 -3 -11 0 -18 7 -9 10 -8
11 6 5 10 -3 15 -9 12 -12z m131 -4 c5 -7 2 -9 -8 -5 -9 3 -20 1 -25 -4 -6 -6
-10 -5 -10 4 0 16 34 20 43 5z m217 -15 c-5 -11 -8 -13 -11 -5 -3 10 -7 10
-18 1 -8 -6 -14 -8 -14 -4 0 11 33 34 42 29 4 -3 4 -12 1 -21z m-343 3 c0 -3
-4 -8 -10 -11 -5 -3 -10 -1 -10 4 0 6 5 11 10 11 6 0 10 -2 10 -4z m374 -12
c3 -8 2 -12 -4 -9 -6 3 -10 10 -10 16 0 14 7 11 14 -7z m246 -18 c0 -3 -4 -8
-10 -11 -5 -3 -10 -1 -10 4 0 6 5 11 10 11 6 0 10 -2 10 -4z m25 -5 c-3 -6 2
-14 11 -19 15 -8 15 -10 0 -15 -10 -4 -14 -3 -11 2 3 5 1 12 -5 16 -10 6 -5
25 6 25 3 0 3 -4 -1 -9z m30 -1 c3 -5 1 -10 -4 -10 -6 0 -11 5 -11 10 0 6 2
10 4 10 3 0 8 -4 11 -10z m-1298 -7 c-4 -3 -2 -12 4 -19 10 -12 7 -12 -30 -5
-5 1 20 31 27 31 3 0 2 -3 -1 -7z m37 -5 c-3 -4 -9 -8 -15 -8 -5 0 -9 4 -9 8
0 5 7 9 15 9 8 0 12 -4 9 -9z m26 -18 c0 -5 -2 -10 -4 -10 -3 0 -8 5 -11 10
-3 6 -1 10 4 10 6 0 11 -4 11 -10z m-212 -25 c-3 -3 -9 2 -12 12 -6 14 -5 15
5 6 7 -7 10 -15 7 -18z m-84 -30 c-4 -8 -11 -12 -16 -9 -6 4 -5 10 3 15 19 12
19 11 13 -6z m1943 -29 c-3 -7 0 -20 6 -27 10 -11 9 -11 -5 0 -15 11 -15 41
-1 41 3 0 3 -6 0 -14z m173 -74 c0 -4 -10 -9 -22 -9 -18 -2 -20 0 -8 7 18 12
30 13 30 2z m135 -52 c3 -5 1 -10 -4 -10 -6 0 -11 5 -11 10 0 6 2 10 4 10 3 0
8 -4 11 -10z m85 -35 c11 -13 10 -14 -4 -9 -9 3 -16 10 -16 15 0 13 6 11 20
-6z m-2944 -50 c-1 -8 -5 -17 -8 -21 -5 -4 -4 16 1 34 3 9 9 -1 7 -13z m3155
-49 c15 9 10 -3 -8 -17 -11 -10 -14 -10 -9 -1 4 7 2 12 -4 12 -6 0 -8 5 -4 12
6 9 9 9 12 0 2 -7 8 -10 13 -6z m-3351 -58 c-13 -14 -20 -17 -18 -8 3 15 30
41 36 35 2 -2 -6 -14 -18 -27z m3641 -155 c13 -16 12 -17 -3 -4 -10 7 -18 15
-18 17 0 8 8 3 21 -13z m305 -196 c20 -18 23 -24 11 -24 -10 0 -17 6 -17 14 0
14 -16 18 -23 6 -2 -5 -2 -3 -1 4 2 6 -2 14 -9 17 -9 3 -9 5 0 5 7 1 24 -9 39
-22z m54 -49 c0 -19 -16 -5 -17 14 -2 18 0 20 7 8 5 -8 10 -18 10 -22z m-4590
-72 c0 -2 -7 -7 -16 -10 -8 -3 -12 -2 -9 4 6 10 25 14 25 6z m4674 -4 c3 -5
-1 -9 -9 -9 -8 0 -15 4 -15 9 0 4 4 8 9 8 6 0 12 -4 15 -8z m-4980 -313 c-9
-11 -20 -17 -23 -14 -3 4 1 10 9 15 8 6 11 10 7 10 -5 0 -5 5 -2 10 4 6 11 8
16 4 6 -4 3 -14 -7 -25z m5321 -17 c-3 -3 -11 0 -18 7 -9 10 -8 11 6 5 10 -3
15 -9 12 -12z m-5414 -125 c-10 -9 -11 -8 -5 6 3 10 9 15 12 12 3 -3 0 -11 -7
-18z m5639 -142 c7 -8 9 -15 6 -15 -4 0 -14 7 -22 15 -9 8 -11 15 -6 15 5 0
15 -7 22 -15z m-5750 -39 c0 -3 -4 -8 -10 -11 -5 -3 -10 -1 -10 4 0 6 5 11 10
11 6 0 10 -2 10 -4z m5793 -30 c-3 -4 -9 -2 -14 5 -13 22 -11 31 5 17 8 -7 12
-17 9 -22z m-5913 -146 c0 -5 -5 -10 -11 -10 -5 0 -7 5 -4 10 3 6 8 10 11 10
2 0 4 -4 4 -10z m6104 -179 c3 -5 -2 -15 -12 -22 -16 -13 -16 -13 -2 5 14 18
13 18 -10 12 -19 -6 -21 -5 -10 3 18 13 27 14 34 2z m77 -298 c13 -16 12 -17
-3 -4 -10 7 -18 15 -18 17 0 8 8 3 21 -13z m19 -273 c0 -5 -2 -10 -4 -10 -3 0
-8 5 -11 10 -3 6 -1 10 4 10 6 0 11 -4 11 -10z m0 -60 c0 -5 -2 -10 -4 -10 -3
0 -8 5 -11 10 -3 6 -1 10 4 10 6 0 11 -4 11 -10z m30 -35 c7 -9 11 -18 8 -21
-11 -10 -48 -12 -54 -3 -3 5 0 8 8 7 8 -2 12 4 10 15 -4 21 11 22 28 2z m-10
-49 c0 -3 -4 -8 -10 -11 -5 -3 -10 -1 -10 4 0 6 5 11 10 11 6 0 10 -2 10 -4z
m-20 -36 c0 -5 -2 -10 -4 -10 -3 0 -8 5 -11 10 -3 6 -1 10 4 10 6 0 11 -4 11
-10z m-6460 -4 c0 -3 -4 -8 -10 -11 -5 -3 -10 -1 -10 4 0 6 5 11 10 11 6 0 10
-2 10 -4z m6475 -56 c3 -5 1 -10 -4 -10 -6 0 -11 5 -11 10 0 6 2 10 4 10 3 0
8 -4 11 -10z m-1 -32 c-3 -5 -1 -15 5 -22 8 -9 7 -13 -4 -13 -8 0 -12 4 -9 9
3 4 1 8 -4 8 -5 0 -9 6 -9 13 0 8 6 14 13 14 7 0 11 -4 8 -9z m-6517 -533 c0
-8 -4 -12 -9 -9 -5 3 -6 10 -3 15 9 13 12 11 12 -6z m6343 11 c0 -2 -7 -7 -16
-10 -8 -3 -12 -2 -9 4 6 10 25 14 25 6z m20 -21 c-7 -9 -15 -13 -17 -11 -6 6
20 36 26 30 2 -2 -2 -10 -9 -19z m-211 -347 c-11 -21 -15 -22 -25 -6 -5 7 -3
8 6 3 9 -6 12 -4 8 7 -4 8 0 15 7 15 10 0 11 -5 4 -19z m-34 -46 c-3 -3 -11 0
-18 7 -9 10 -8 11 6 5 10 -3 15 -9 12 -12z m-6035 -182 c-6 -11 -13 -20 -16
-20 -2 0 0 9 6 20 6 11 13 20 16 20 2 0 0 -9 -6 -20z m5775 -50 c3 -5 1 -10
-4 -10 -6 0 -11 5 -11 10 0 6 2 10 4 10 3 0 8 -4 11 -10z m-95 -104 c0 -3 -4
-8 -10 -11 -5 -3 -10 -1 -10 4 0 6 5 11 10 11 6 0 10 -2 10 -4z m-91 -67 c-22
-13 -31 -11 -17 5 7 8 17 12 22 9 4 -3 2 -9 -5 -14z m-205 -146 c4 -10 4 -14
0 -10 -4 4 -13 2 -21 -4 -16 -14 -17 -3 0 16 15 18 14 18 21 -2z m-152 -75
c-7 -7 -12 -8 -12 -2 0 14 12 26 19 19 2 -3 -1 -11 -7 -17z m-379 -225 c-21
-16 -33 -17 -33 -2 0 5 4 8 9 4 5 -3 13 4 16 16 6 17 9 19 16 8 6 -9 3 -18 -8
-26z m-4567 -18 c-3 -8 0 -15 6 -15 6 0 9 -3 5 -6 -10 -11 -26 6 -20 21 3 8 7
15 10 15 3 0 3 -7 -1 -15z m311 -322 c-9 -8 -47 -11 -47 -4 0 5 11 9 25 9 14
0 24 -2 22 -5z m3543 -3 c0 -5 -5 -10 -11 -10 -5 0 -7 5 -4 10 3 6 8 10 11 10
2 0 4 -4 4 -10z m-3510 -34 c0 -11 -19 -15 -25 -6 -3 5 1 10 9 10 9 0 16 -2
16 -4z m84 -47 c-3 -6 0 -16 7 -21 12 -8 11 -9 -1 -5 -18 4 -27 37 -10 37 6 0
8 -5 4 -11z m3209 -13 c4 -10 1 -13 -8 -9 -8 3 -12 9 -9 14 7 12 11 11 17 -5z
m-27 -18 c4 -7 3 -8 -4 -4 -7 4 -12 2 -12 -3 0 -6 -5 -11 -11 -11 -8 0 -8 5 1
15 15 18 17 18 26 3z m-176 -54 c0 -8 -19 -13 -24 -6 -3 5 1 9 9 9 8 0 15 -2
15 -3z m-49 -21 c13 -16 12 -17 -3 -4 -17 13 -22 21 -14 21 2 0 10 -8 17 -17z
m-131 -33 c-6 -12 -14 -20 -17 -17 -2 3 1 14 8 26 17 26 24 19 9 -9z m-2480
-44 c0 -2 -7 -7 -16 -10 -8 -3 -12 -2 -9 4 6 10 25 14 25 6z m2270 -21 c-8
-14 -39 -13 -33 1 2 7 12 11 21 10 9 -2 15 -7 12 -11z m-2090 -37 c0 -5 -9 -3
-20 4 -11 7 -20 16 -20 20 0 5 9 3 20 -4 11 -7 20 -16 20 -20z m1800 -16 c0
-5 -7 -9 -15 -9 -8 0 -12 4 -9 9 3 4 9 8 15 8 5 0 9 -4 9 -8z m-1462 -43 c-3
-8 -7 -3 -11 10 -4 17 -3 21 5 13 5 -5 8 -16 6 -23z m277 -19 c3 -5 1 -10 -4
-10 -6 0 -11 5 -11 10 0 6 2 10 4 10 3 0 8 -4 11 -10z m639 -11 c-3 -5 -10 -7
-15 -3 -5 3 -7 10 -3 15 3 5 10 7 15 3 5 -3 7 -10 3 -15z m-454 2 c0 -5 -7
-12 -16 -15 -14 -5 -15 -4 -4 9 14 17 20 19 20 6z m94 -30 c-2 -3 -12 3 -22
13 -16 17 -16 18 5 5 12 -7 20 -15 17 -18z"/>
<path d="M6803 3415 c0 -8 4 -12 9 -9 5 3 6 10 3 15 -9 13 -12 11 -12 -6z"/>
<path d="M3386 6054 c-3 -9 -2 -12 5 -9 5 4 17 1 26 -7 15 -12 15 -11 2 10
-16 26 -25 28 -33 6z"/>
<path d="M2866 6022 c-3 -5 1 -9 9 -9 8 0 12 4 9 9 -3 4 -7 8 -9 8 -2 0 -6 -4
-9 -8z"/>
<path d="M2916 6011 c-3 -5 2 -15 12 -22 15 -12 16 -12 5 2 -7 9 -10 19 -6 22
3 4 4 7 0 7 -3 0 -8 -4 -11 -9z"/>
<path d="M4175 5991 c-3 -5 -2 -12 3 -15 5 -3 9 1 9 9 0 17 -3 19 -12 6z"/>
<path d="M4308 5973 c6 -2 9 -10 6 -15 -4 -7 -2 -8 4 -4 18 11 14 26 -5 25
-11 0 -13 -3 -5 -6z"/>
<path d="M4380 5963 c0 -11 20 -40 20 -29 0 5 9 1 19 -8 13 -12 21 -14 26 -6
4 6 1 9 -7 8 -7 -2 -12 3 -10 10 1 8 -2 11 -7 8 -5 -4 -17 1 -25 10 -9 8 -16
12 -16 7z"/>
<path d="M2645 5950 c-4 -6 -12 -7 -18 -4 -7 4 -8 3 -4 -1 13 -15 34 -14 34 1
0 17 -4 18 -12 4z"/>
<path d="M4496 5895 c-4 -11 -4 -16 0 -12 4 4 12 3 18 -3 8 -6 12 -2 13 13 2
15 0 18 -6 8 -7 -11 -9 -11 -13 0 -3 9 -7 7 -12 -6z"/>
<path d="M4575 5900 c3 -5 8 -10 11 -10 2 0 4 5 4 10 0 6 -5 10 -11 10 -5 0
-7 -4 -4 -10z"/>
<path d="M4600 5881 c0 -6 4 -13 10 -16 6 -3 7 1 4 9 -7 18 -14 21 -14 7z"/>
<path d="M4735 5841 c-3 -5 -2 -12 3 -15 5 -3 9 1 9 9 0 17 -3 19 -12 6z"/>
<path d="M2165 5771 c3 -5 1 -12 -5 -16 -5 -3 -10 -1 -10 6 0 7 -3 10 -6 6
-12 -12 7 -28 20 -18 7 6 16 8 19 4 4 -3 7 -2 7 4 0 6 -7 14 -16 17 -8 3 -12
2 -9 -3z"/>
<path d="M2066 5724 c-5 -14 -4 -15 9 -4 17 14 19 20 6 20 -5 0 -12 -7 -15
-16z"/>
<path d="M5020 5682 c0 -5 7 -9 15 -9 8 0 15 4 15 9 0 4 -7 8 -15 8 -8 0 -15
-4 -15 -8z"/>
<path d="M5220 5591 c0 -6 4 -13 10 -16 6 -3 7 1 4 9 -7 18 -14 21 -14 7z"/>
<path d="M5250 5569 c0 -5 5 -7 10 -4 6 3 10 8 10 11 0 2 -4 4 -10 4 -5 0 -10
-5 -10 -11z"/>
<path d="M5575 5341 c-3 -5 -1 -12 5 -16 5 -3 10 1 10 9 0 18 -6 21 -15 7z"/>
<path d="M1249 5171 c11 -7 9 -11 -8 -20 -12 -7 -26 -9 -31 -6 -5 3 -11 1 -14
-4 -9 -13 41 -6 59 9 16 13 11 30 -8 30 -8 0 -7 -3 2 -9z"/>
<path d="M1135 5080 c-3 -5 -1 -10 4 -10 6 0 11 5 11 10 0 6 -2 10 -4 10 -3 0
-8 -4 -11 -10z"/>
<path d="M813 4717 c0 -7 9 -14 20 -14 11 -1 18 -1 16 0 -2 2 -11 8 -20 15
-12 9 -16 9 -16 -1z"/>
<path d="M750 4639 c0 -5 5 -7 10 -4 6 3 10 8 10 11 0 2 -4 4 -10 4 -5 0 -10
-5 -10 -11z"/>
<path d="M6495 4480 c-3 -5 -1 -10 4 -10 6 0 11 5 11 10 0 6 -2 10 -4 10 -3 0
-8 -4 -11 -10z"/>
<path d="M549 4283 c-13 -16 -12 -17 4 -4 9 7 17 15 17 17 0 8 -8 3 -21 -13z"/>
<path d="M510 4180 c0 -5 5 -10 11 -10 5 0 7 5 4 10 -3 6 -8 10 -11 10 -2 0
-4 -4 -4 -10z"/>
<path d="M6652 4173 c-6 -2 -10 -9 -6 -14 8 -14 21 -11 21 6 0 8 -1 15 -1 14
-1 0 -7 -3 -14 -6z"/>
<path d="M6660 4136 c0 -2 7 -7 16 -10 8 -3 12 -2 9 4 -6 10 -25 14 -25 6z"/>
<path d="M6711 4066 c-9 -11 -9 -16 1 -22 7 -4 10 -4 6 1 -4 4 -3 14 3 22 6 7
9 13 6 13 -2 0 -10 -6 -16 -14z"/>
<path d="M6790 3745 c-11 -14 -7 -19 13 -16 4 1 5 -10 3 -23 -3 -19 -1 -23 11
-19 12 5 12 7 1 14 -11 7 -10 9 1 9 11 0 11 4 -2 18 -10 10 -14 22 -10 25 3 4
4 7 1 7 -3 0 -11 -7 -18 -15z"/>
<path d="M317 3673 c3 -7 6 -13 8 -13 2 0 5 6 8 13 3 8 -1 14 -8 14 -7 0 -11
-6 -8 -14z"/>
<path d="M6820 3669 c0 -5 -5 -7 -12 -3 -7 5 -8 3 -2 -7 5 -8 9 -17 9 -21 0
-22 10 -11 11 13 1 16 0 29 -2 29 -2 0 -4 -5 -4 -11z"/>
<path d="M308 3553 c7 -3 16 -2 19 1 4 3 -2 6 -13 5 -11 0 -14 -3 -6 -6z"/>
<path d="M6835 3520 c-3 -5 -1 -10 4 -10 6 0 11 5 11 10 0 6 -2 10 -4 10 -3 0
-8 -4 -11 -10z"/>
<path d="M267 3439 c7 -7 15 -10 18 -7 3 3 -2 9 -12 12 -14 6 -15 5 -6 -5z"/>
<path d="M6829 3364 c-13 -16 -25 -64 -13 -52 3 3 6 13 8 21 1 8 8 22 15 31 7
9 11 16 8 16 -2 0 -11 -7 -18 -16z"/>
<path d="M6835 3280 c-3 -5 -1 -10 4 -10 6 0 11 5 11 10 0 6 -2 10 -4 10 -3 0
-8 -4 -11 -10z"/>
<path d="M6730 2926 c0 -2 7 -7 16 -10 8 -3 12 -2 9 4 -6 10 -25 14 -25 6z"/>
<path d="M6588 2588 c5 -5 16 -8 23 -6 8 3 3 7 -10 11 -17 4 -21 3 -13 -5z"/>
<path d="M310 2310 c0 -5 4 -10 9 -10 6 0 13 5 16 10 3 6 -1 10 -9 10 -9 0
-16 -4 -16 -10z"/>
<path d="M6306 2203 c-6 -14 -5 -15 5 -6 7 7 10 15 7 18 -3 3 -9 -2 -12 -12z"/>
<path d="M399 1934 c-9 -12 -10 -15 -1 -10 6 4 12 3 12 -3 0 -5 -5 -11 -12
-13 -7 -3 -4 -7 7 -12 11 -4 16 -4 12 0 -4 4 -2 13 5 21 7 9 8 17 1 24 -7 7
-15 4 -24 -7z"/>
<path d="M518 1613 c6 -2 12 -11 12 -19 0 -8 5 -14 10 -14 7 0 7 6 0 20 -6 11
-16 20 -23 19 -9 0 -9 -2 1 -6z"/>
<path d="M5340 1500 c-9 -6 -10 -10 -3 -10 6 0 15 5 18 10 8 12 4 12 -15 0z"/>
<path d="M606 1465 c4 -8 11 -15 16 -15 6 0 5 6 -2 15 -7 8 -14 15 -16 15 -2
0 -1 -7 2 -15z"/>
<path d="M5146 1407 c3 -10 9 -15 12 -12 3 3 0 11 -7 18 -10 9 -11 8 -5 -6z"/>
<path d="M4975 1319 c-4 -6 -5 -12 -2 -15 2 -3 7 2 10 11 7 17 1 20 -8 4z"/>
<path d="M730 1300 c0 -5 5 -10 11 -10 5 0 7 5 4 10 -3 6 -8 10 -11 10 -2 0
-4 -4 -4 -10z"/>
<path d="M4840 1250 c-14 -11 -20 -20 -13 -20 6 0 15 5 18 10 3 6 11 10 16 10
6 0 7 -5 3 -12 -4 -7 -3 -8 4 -4 6 4 9 13 5 21 -6 18 -3 19 -33 -5z"/>
<path d="M789 1241 c6 -10 8 -20 6 -23 -3 -3 1 -5 9 -5 12 0 12 4 -1 24 -18
28 -28 31 -14 4z"/>
<path d="M4661 1166 c-9 -10 -8 -15 3 -19 10 -4 13 -1 10 8 -3 7 2 15 13 18
14 4 15 5 2 6 -9 0 -22 -5 -28 -13z"/>
<path d="M4335 1029 c-4 -6 -5 -12 -2 -15 2 -3 7 2 10 11 7 17 1 20 -8 4z"/>
<path d="M1096 978 c3 -5 10 -6 15 -3 13 9 11 12 -6 12 -8 0 -12 -4 -9 -9z"/>
<path d="M1150 959 c0 -5 5 -7 10 -4 6 3 10 8 10 11 0 2 -4 4 -10 4 -5 0 -10
-5 -10 -11z"/>
<path d="M3856 872 c-3 -5 1 -9 9 -9 8 0 12 4 9 9 -3 4 -7 8 -9 8 -2 0 -6 -4
-9 -8z"/>
<path d="M1356 862 c-3 -5 1 -15 8 -21 11 -10 14 -9 12 3 -3 21 -13 29 -20 18z"/>
<path d="M3796 842 c-3 -5 1 -9 9 -9 8 0 12 4 9 9 -3 4 -7 8 -9 8 -2 0 -6 -4
-9 -8z"/>
<path d="M1415 820 c-3 -5 -1 -10 4 -10 6 0 11 5 11 10 0 6 -2 10 -4 10 -3 0
-8 -4 -11 -10z"/>
<path d="M3459 783 c-12 -14 -12 -16 0 -8 11 6 13 4 8 -9 -4 -9 -3 -15 2 -11
6 3 9 14 8 25 -2 24 -1 24 -18 3z"/>
<path d="M1625 760 c3 -5 8 -10 11 -10 2 0 4 5 4 10 0 6 -5 10 -11 10 -5 0 -7
-4 -4 -10z"/>
<path d="M1816 745 c4 -8 10 -15 16 -15 5 0 6 -6 2 -12 -4 -7 -4 -10 1 -6 4 4
15 2 23 -5 13 -10 14 -9 2 9 -17 27 -52 51 -44 29z"/>
<path d="M3219 743 c-8 -9 -9 -14 -2 -10 6 4 13 2 15 -5 3 -9 6 -9 12 0 4 7 2
12 -4 12 -6 0 -8 5 -5 10 10 16 -1 11 -16 -7z"/>
<path d="M3081 731 c-8 -5 -9 -11 -3 -15 5 -3 12 1 16 9 6 17 6 18 -13 6z"/>
<path d="M3162 726 c7 -8 15 -12 17 -11 5 6 -10 25 -20 25 -5 0 -4 -6 3 -14z"/>
<path d="M2355 709 c-4 -6 -5 -12 -2 -15 2 -3 7 2 10 11 7 17 1 20 -8 4z"/>
<path d="M3190 709 c0 -5 5 -7 10 -4 6 3 10 8 10 11 0 2 -4 4 -10 4 -5 0 -10
-5 -10 -11z"/>
<path d="M2671 696 c-10 -12 -6 -26 10 -26 11 0 19 29 10 35 -5 2 -14 -1 -20
-9z"/>
<path d="M2431 686 c-8 -10 -9 -16 -1 -21 5 -3 10 -3 10 1 0 3 8 0 18 -7 15
-12 16 -12 5 2 -7 9 -10 18 -7 21 3 3 1 9 -4 12 -5 3 -15 -1 -21 -8z"/>
<path d="M2550 681 c0 -5 7 -12 16 -15 24 -9 27 -7 10 9 -17 17 -26 19 -26 6z"/>
</g>
</svg>
