<svg width="48" height="48" viewBox="0 0 48 48" fill="none" xmlns="http://www.w3.org/2000/svg">
<path d="M20.58 7.72L3.64 36C3.29074 36.6048 3.10594 37.2906 3.10398 37.989C3.10203 38.6875 3.28299 39.3743 3.62886 39.981C3.97473 40.5878 4.47345 41.0935 5.07542 41.4477C5.67738 41.8019 6.3616 41.9923 7.06 42H40.94C41.6384 41.9923 42.3226 41.8019 42.9246 41.4477C43.5266 41.0935 44.0253 40.5878 44.3712 39.981C44.717 39.3743 44.898 38.6875 44.896 37.989C44.8941 37.2906 44.7093 36.6048 44.36 36L27.42 7.72C27.0635 7.13221 26.5614 6.64624 25.9624 6.30897C25.3633 5.97169 24.6875 5.79451 24 5.79451C23.3125 5.79451 22.6367 5.97169 22.0376 6.30897C21.4386 6.64624 20.9365 7.13221 20.58 7.72Z" stroke="#1A1A1A" stroke-width="2" stroke-linecap="round" stroke-linejoin="round"/>
<path d="M24 18V26" stroke="#1A1A1A" stroke-width="2" stroke-linecap="round" stroke-linejoin="round"/>
<path d="M24 34H24.02" stroke="#1A1A1A" stroke-width="2" stroke-linecap="round" stroke-linejoin="round"/>
</svg>
