<svg width="48" height="48" viewBox="0 0 48 48" fill="none" xmlns="http://www.w3.org/2000/svg">
<path d="M41.68 9.22C40.6585 8.19801 39.4456 7.3873 38.1107 6.83417C36.7758 6.28105 35.345 5.99635 33.9 5.99635C32.455 5.99635 31.0242 6.28105 29.6893 6.83417C28.3544 7.3873 27.1415 8.19801 26.12 9.22L24 11.34L21.88 9.22C19.8166 7.15662 17.0181 5.99742 14.1 5.99742C11.1819 5.99742 8.38338 7.15662 6.32 9.22C4.25662 11.2834 3.09742 14.0819 3.09742 17C3.09742 19.9181 4.25662 22.7166 6.32 24.78L8.44 26.9L24 42.46L39.56 26.9L41.68 24.78C42.702 23.7585 43.5127 22.5456 44.0658 21.2107C44.619 19.8758 44.9037 18.445 44.9037 17C44.9037 15.555 44.619 14.1242 44.0658 12.7893C43.5127 11.4544 42.702 10.2415 41.68 9.22Z" stroke="black" stroke-width="2" stroke-linecap="round" stroke-linejoin="round"/>
</svg>
